<?xml version="1.0" encoding="UTF-8"?>
<svg width="32" height="32" viewBox="0 0 32 32" fill="none" xmlns="http://www.w3.org/2000/svg">
    <path d="M17.65 15.15L12.1 19.7l1.41 1.41L17.65 16.37l4.14 4.14 1.41-1.41L17.65 15.15zM12.85 5.86C12.56 5.57 12.13 5.43 11.71 5.43c-1.66 0-3 1.34-3 3s1.34 3 3 3c.42 0 .85-.13 1.2-.37l2.3 2.3c-.06.22-.1.45-.1.68 0 1.66 1.34 3 3 3s3-1.34 3-3c0-.23-.04-.46-.11-.67l2.3 2.3c.24.24.58.37.92.37 1.66 0 3-1.34 3-3s-1.34-3-3-3c-.24 0-.52.06-.76.17L12.85 5.86z" fill="#42B883"/>
</svg>
